<svg id="svg414" version="1.1" xmlns="http://www.w3.org/2000/svg">xmlns:dc="http://purl.org/dc/elements/1.1/"
   xmlns:cc="http://creativecommons.org/ns#"
   xmlns:rdf="http://www.w3.org/1999/02/22-rdf-syntax-ns#"
   xmlns:svg="http://www.w3.org/2000/svg"
   xmlns="http://www.w3.org/2000/svg"
   xmlns:sodipodi="http://sodipodi.sourceforge.net/DTD/sodipodi-0.dtd"
   xmlns:inkscape="http://www.inkscape.org/namespaces/inkscape"
   width="52.452919cm"
   height="32.60907cm"
   viewBox="0 0 524.52918 326.0907"
   version="1.1"
   id="svg8"
   inkscape:version="0.92.3 (2405546, 2018-03-11)"
   sodipodi:docname="GL30 hallkart.svg"&gt;
 <g id="layer1" transform="translate(1.5 -29.592)">
  <flowRoot id="flowRoot5858" transform="matrix(.26458 0 0 .26458 0 77)" fill="#000000" font-family="sans-serif" font-size="40px" letter-spacing="0px" word-spacing="0px" style="line-height:1.25" xml:space="preserve"><flowRegion id="flowRegion5860"><rect id="rect5862" x="296.98" y="163.99" width="14.142" height="115.97"/></flowRegion><flowPara id="flowPara5864"/></flowRoot>
  <flowRoot id="flowRoot6027" fill="#000000" font-family="'Serpentine LT Medium'" font-size="40px" letter-spacing="0px" word-spacing="0px" style="line-height:1.25" xml:space="preserve"><flowRegion id="flowRegion6029"><rect id="rect6031" x="104.65" y="246.01" width="240.42" height="206.48"/></flowRegion><flowPara id="flowPara6033"/></flowRoot>
  <flowRoot id="flowRoot6043" fill="#000000" font-family="'Serpentine LT Medium'" font-size="40px" letter-spacing="0px" word-spacing="0px" style="line-height:1.25" xml:space="preserve"><flowRegion id="flowRegion6045"><rect id="rect6047" x="1255.8" y="735.33" width="534.57" height="130.11"/></flowRegion><flowPara id="flowPara6049"/></flowRoot>
  <g id="g7320" transform="translate(40 -5.0001)">
   <g fill="#ffd5d5">
    <g stroke="#000" stroke-linejoin="round">
     <g stroke-width=".32508">
      <rect id="rect4522-474" x="159.94" y="110.28" width="17.675" height="7.1749" style="paint-order:normal"/>
      <rect id="rect4522-9-4" x="159.94" y="117.45" width="17.675" height="7.1749" style="paint-order:normal"/>
      <rect id="rect4522-98-14" x="177.62" y="110.28" width="17.675" height="7.1749" style="paint-order:normal"/>
      <rect id="rect4522-2-5" x="142.27" y="117.45" width="17.675" height="7.1749" style="paint-order:normal"/>
     </g>
     <rect id="rect4522-95-1" x="142.27" y="110.28" width="17.675" height="7.1749" stroke-width=".325" style="paint-order:normal"/>
     <g stroke-width=".32508">
      <rect id="rect4522-0-31" x="230.64" y="110.28" width="17.675" height="7.1749" style="paint-order:normal"/>
      <rect id="rect4522-981-7" x="177.62" y="117.45" width="17.675" height="7.1749" style="paint-order:normal"/>
      <rect id="rect4522-03-58" x="195.29" y="117.45" width="17.675" height="7.1749" style="paint-order:normal"/>
      <rect id="rect4522-7-33" x="195.29" y="110.28" width="17.675" height="7.1749" style="paint-order:normal"/>
      <rect id="rect4522-99-8" x="212.97" y="110.28" width="17.675" height="7.1749" style="paint-order:normal"/>
      <rect id="rect4522-09-5" x="212.97" y="117.45" width="17.675" height="7.1749" style="paint-order:normal"/>
      <rect id="rect4522-77-06" x="230.64" y="117.45" width="17.675" height="7.1749" style="paint-order:normal"/>
     </g>
    </g>
    <g id="g5881" transform="translate(533.77 9.0266)">
     <g id="g5877" fill="#ffd5d5">
      <rect id="rect5874" transform="rotate(-90)" x="-174.22" y="-111.61" width="17.675" height="7.1749" fill="#ffd5d5" stroke="#000" stroke-linejoin="round" stroke-width=".325" style="paint-order:normal"/>
     </g>
    </g>
    <g id="g5898" transform="translate(533.77 9.0266)">
     <g id="g5896" fill="#ffd5d5">
      <rect id="rect5894" transform="rotate(-90)" x="-174.22" y="-111.61" width="17.675" height="7.1749" fill="#ffd5d5" stroke="#000" stroke-linejoin="round" stroke-width=".325" style="paint-order:normal"/>
     </g>
    </g>
    <g id="g5908" transform="translate(533.77 -8.6483)">
     <g id="g5906" fill="#ffd5d5">
      <rect id="rect5904" transform="rotate(-90)" x="-174.22" y="-111.61" width="17.675" height="7.1749" fill="#ffd5d5" stroke="#000" stroke-linejoin="round" stroke-width=".325" style="paint-order:normal"/>
     </g>
    </g>
    <g id="g5918" transform="translate(533.77 44.376)">
     <g id="g5916" fill="#ffd5d5">
      <rect id="rect5914" transform="rotate(-90)" x="-174.22" y="-111.61" width="17.675" height="7.1749" fill="#ffd5d5" stroke="#000" stroke-linejoin="round" stroke-width=".325" style="paint-order:normal"/>
     </g>
    </g>
    <g id="g5928" transform="translate(533.77 26.702)">
     <g id="g5926" fill="#ffd5d5">
      <rect id="rect5924" transform="rotate(-90)" x="-174.22" y="-111.61" width="17.675" height="7.1749" fill="#ffd5d5" stroke="#000" stroke-linejoin="round" stroke-width=".325" style="paint-order:normal"/>
     </g>
    </g>
   </g>
   <g fill="#afa" stroke="#000" stroke-linejoin="round">
    <g stroke-width=".32508">
     <rect id="rect5218" x="159.94" y="138.34" width="17.675" height="7.1749" style="paint-order:normal"/>
     <rect id="rect5220" x="159.94" y="145.52" width="17.675" height="7.1749" style="paint-order:normal"/>
     <rect id="rect5222" x="177.62" y="138.34" width="17.675" height="7.1749" style="paint-order:normal"/>
     <rect id="rect5224" x="142.27" y="145.52" width="17.675" height="7.1749" style="paint-order:normal"/>
    </g>
    <rect id="rect5226" x="142.27" y="138.34" width="17.675" height="7.1749" stroke-width=".325" style="paint-order:normal"/>
    <g stroke-width=".32508">
     <rect id="rect5228" x="230.64" y="138.34" width="17.675" height="7.1749" style="paint-order:normal"/>
     <rect id="rect5230" x="177.62" y="145.52" width="17.675" height="7.1749" style="paint-order:normal"/>
     <rect id="rect5232" x="195.29" y="145.52" width="17.675" height="7.1749" style="paint-order:normal"/>
     <rect id="rect5234" x="195.29" y="138.34" width="17.675" height="7.1749" style="paint-order:normal"/>
     <rect id="rect5236" x="212.97" y="138.34" width="17.675" height="7.1749" style="paint-order:normal"/>
     <rect id="rect5238" x="212.97" y="145.52" width="17.675" height="7.1749" style="paint-order:normal"/>
     <rect id="rect5240" x="230.64" y="145.52" width="17.675" height="7.1749" style="paint-order:normal"/>
    </g>
    <rect id="rect6451" x="14.297" y="311.33" width="17.675" height="7.1749" stroke-width=".325" style="paint-order:normal"/>
    <g stroke-width=".32508">
     <rect id="rect5244" x="159.94" y="166.4" width="17.675" height="7.1749" style="paint-order:normal"/>
     <rect id="rect5246" x="159.94" y="173.58" width="17.675" height="7.1749" style="paint-order:normal"/>
     <rect id="rect5248" x="177.62" y="166.4" width="17.675" height="7.1749" style="paint-order:normal"/>
     <rect id="rect5250" x="142.27" y="173.58" width="17.675" height="7.1749" style="paint-order:normal"/>
    </g>
    <rect id="rect5252" x="142.27" y="166.4" width="17.675" height="7.1749" stroke-width=".325" style="paint-order:normal"/>
    <g stroke-width=".32508">
     <rect id="rect5254" x="230.64" y="166.4" width="17.675" height="7.1749" style="paint-order:normal"/>
     <rect id="rect5256" x="177.62" y="173.58" width="17.675" height="7.1749" style="paint-order:normal"/>
     <rect id="rect5258" x="195.29" y="173.58" width="17.675" height="7.1749" style="paint-order:normal"/>
     <rect id="rect5260" x="195.29" y="166.4" width="17.675" height="7.1749" style="paint-order:normal"/>
     <rect id="rect5262" x="212.97" y="166.4" width="17.675" height="7.1749" style="paint-order:normal"/>
     <rect id="rect5264" x="212.97" y="173.58" width="17.675" height="7.1749" style="paint-order:normal"/>
     <rect id="rect5266" x="230.64" y="173.58" width="17.675" height="7.1749" style="paint-order:normal"/>
     <rect id="rect5270" x="159.94" y="194.47" width="17.675" height="7.1749" style="paint-order:normal"/>
     <rect id="rect5272" x="159.94" y="201.64" width="17.675" height="7.1749" style="paint-order:normal"/>
     <rect id="rect5274" x="177.62" y="194.47" width="17.675" height="7.1749" style="paint-order:normal"/>
     <rect id="rect5276" x="142.27" y="201.64" width="17.675" height="7.1749" style="paint-order:normal"/>
    </g>
    <rect id="rect5278" x="142.27" y="194.47" width="17.675" height="7.1749" stroke-width=".325" style="paint-order:normal"/>
    <g stroke-width=".32508">
     <rect id="rect5280" x="230.64" y="194.47" width="17.675" height="7.1749" style="paint-order:normal"/>
     <rect id="rect5282" x="177.62" y="201.64" width="17.675" height="7.1749" style="paint-order:normal"/>
     <rect id="rect5284" x="195.29" y="201.64" width="17.675" height="7.1749" style="paint-order:normal"/>
     <rect id="rect5286" x="195.29" y="194.47" width="17.675" height="7.1749" style="paint-order:normal"/>
     <rect id="rect5288" x="212.97" y="194.47" width="17.675" height="7.1749" style="paint-order:normal"/>
     <rect id="rect5290" x="212.97" y="201.64" width="17.675" height="7.1749" style="paint-order:normal"/>
     <rect id="rect5292" x="230.64" y="201.64" width="17.675" height="7.1749" style="paint-order:normal"/>
     <rect id="rect5296" x="159.94" y="222.53" width="17.675" height="7.1749" style="paint-order:normal"/>
     <rect id="rect5298" x="159.94" y="229.71" width="17.675" height="7.1749" style="paint-order:normal"/>
     <rect id="rect5300" x="177.62" y="222.53" width="17.675" height="7.1749" style="paint-order:normal"/>
     <rect id="rect5302" x="142.27" y="229.71" width="17.675" height="7.1749" style="paint-order:normal"/>
    </g>
    <rect id="rect5304" x="142.27" y="222.53" width="17.675" height="7.1749" stroke-width=".325" style="paint-order:normal"/>
    <g stroke-width=".32508">
     <rect id="rect5306" x="230.64" y="222.53" width="17.675" height="7.1749" style="paint-order:normal"/>
     <rect id="rect5308" x="177.62" y="229.71" width="17.675" height="7.1749" style="paint-order:normal"/>
     <rect id="rect5310" x="195.29" y="229.71" width="17.675" height="7.1749" style="paint-order:normal"/>
     <rect id="rect5312" x="195.29" y="222.53" width="17.675" height="7.1749" style="paint-order:normal"/>
     <rect id="rect5314" x="212.97" y="222.53" width="17.675" height="7.1749" style="paint-order:normal"/>
     <rect id="rect5316" x="212.97" y="229.71" width="17.675" height="7.1749" style="paint-order:normal"/>
     <rect id="rect5318" x="230.64" y="229.71" width="17.675" height="7.1749" style="paint-order:normal"/>
     <rect id="rect5322" x="159.94" y="250.59" width="17.675" height="7.1749" style="paint-order:normal"/>
     <rect id="rect5324" x="159.94" y="257.77" width="17.675" height="7.1749" style="paint-order:normal"/>
     <rect id="rect5326" x="177.62" y="250.59" width="17.675" height="7.1749" style="paint-order:normal"/>
     <rect id="rect5328" x="142.27" y="257.77" width="17.675" height="7.1749" style="paint-order:normal"/>
    </g>
    <rect id="rect5330" x="142.27" y="250.59" width="17.675" height="7.1749" stroke-width=".325" style="paint-order:normal"/>
    <g stroke-width=".32508">
     <rect id="rect5332" x="230.64" y="250.59" width="17.675" height="7.1749" style="paint-order:normal"/>
     <rect id="rect5334" x="177.62" y="257.77" width="17.675" height="7.1749" style="paint-order:normal"/>
     <rect id="rect5336" x="195.29" y="257.77" width="17.675" height="7.1749" style="paint-order:normal"/>
     <rect id="rect5338" x="195.29" y="250.59" width="17.675" height="7.1749" style="paint-order:normal"/>
     <rect id="rect5340" x="212.97" y="250.59" width="17.675" height="7.1749" style="paint-order:normal"/>
     <rect id="rect5342" x="212.97" y="257.77" width="17.675" height="7.1749" style="paint-order:normal"/>
     <rect id="rect5344" x="230.64" y="257.77" width="17.675" height="7.1749" style="paint-order:normal"/>
    </g>
   </g>
   <g fill="#ffd5d5" stroke="#000" stroke-linejoin="round">
    <rect id="rect6453" x="132.54" y="311.33" width="17.675" height="7.1749" stroke-width=".325" style="paint-order:normal"/>
    <g stroke-width=".32508">
     <rect id="rect5469" x="296.89" y="110.28" width="17.675" height="7.1749" style="paint-order:normal"/>
     <rect id="rect5471" x="296.89" y="117.45" width="17.675" height="7.1749" style="paint-order:normal"/>
     <rect id="rect5473" x="314.56" y="110.28" width="17.675" height="7.1749" style="paint-order:normal"/>
     <rect id="rect5475" x="279.21" y="117.45" width="17.675" height="7.1749" style="paint-order:normal"/>
    </g>
    <rect id="rect5477" x="279.21" y="110.28" width="17.675" height="7.1749" stroke-width=".325" style="paint-order:normal"/>
    <g stroke-width=".32508">
     <rect id="rect5479" x="367.59" y="110.28" width="17.675" height="7.1749" style="paint-order:normal"/>
     <rect id="rect5481" x="314.56" y="117.45" width="17.675" height="7.1749" style="paint-order:normal"/>
     <rect id="rect5483" x="332.24" y="117.45" width="17.675" height="7.1749" style="paint-order:normal"/>
     <rect id="rect5485" x="332.24" y="110.28" width="17.675" height="7.1749" style="paint-order:normal"/>
     <rect id="rect5487" x="349.91" y="110.28" width="17.675" height="7.1749" style="paint-order:normal"/>
     <rect id="rect5489" x="349.91" y="117.45" width="17.675" height="7.1749" style="paint-order:normal"/>
     <rect id="rect5491" x="367.59" y="117.45" width="17.675" height="7.1749" style="paint-order:normal"/>
    </g>
   </g>
   <g fill="#afa" stroke="#000" stroke-linejoin="round">
    <g stroke-width=".32508">
     <rect id="rect5495" x="296.89" y="138.34" width="17.675" height="7.1749" style="paint-order:normal"/>
     <rect id="rect5497" x="296.89" y="145.52" width="17.675" height="7.1749" style="paint-order:normal"/>
     <rect id="rect5499" x="314.56" y="138.34" width="17.675" height="7.1749" style="paint-order:normal"/>
     <rect id="rect5501" x="279.21" y="145.52" width="17.675" height="7.1749" style="paint-order:normal"/>
    </g>
    <rect id="rect5503" x="279.21" y="138.34" width="17.675" height="7.1749" stroke-width=".325" style="paint-order:normal"/>
    <g stroke-width=".32508">
     <rect id="rect5505" x="367.59" y="138.34" width="17.675" height="7.1749" style="paint-order:normal"/>
     <rect id="rect5507" x="314.56" y="145.52" width="17.675" height="7.1749" style="paint-order:normal"/>
     <rect id="rect5509" x="332.24" y="145.52" width="17.675" height="7.1749" style="paint-order:normal"/>
     <rect id="rect5511" x="332.24" y="138.34" width="17.675" height="7.1749" style="paint-order:normal"/>
     <rect id="rect5513" x="349.91" y="138.34" width="17.675" height="7.1749" style="paint-order:normal"/>
     <rect id="rect5515" x="349.91" y="145.52" width="17.675" height="7.1749" style="paint-order:normal"/>
     <rect id="rect5517" x="367.59" y="145.52" width="17.675" height="7.1749" style="paint-order:normal"/>
     <rect id="rect5521" x="296.89" y="166.4" width="17.675" height="7.1749" style="paint-order:normal"/>
     <rect id="rect5523" x="296.89" y="173.58" width="17.675" height="7.1749" style="paint-order:normal"/>
     <rect id="rect5525" x="314.56" y="166.4" width="17.675" height="7.1749" style="paint-order:normal"/>
     <rect id="rect5527" x="279.21" y="173.58" width="17.675" height="7.1749" style="paint-order:normal"/>
    </g>
    <rect id="rect5529" x="279.21" y="166.4" width="17.675" height="7.1749" stroke-width=".325" style="paint-order:normal"/>
    <g stroke-width=".32508">
     <rect id="rect5531" x="367.59" y="166.4" width="17.675" height="7.1749" style="paint-order:normal"/>
     <rect id="rect5533" x="314.56" y="173.58" width="17.675" height="7.1749" style="paint-order:normal"/>
     <rect id="rect5535" x="332.24" y="173.58" width="17.675" height="7.1749" style="paint-order:normal"/>
     <rect id="rect5537" x="332.24" y="166.4" width="17.675" height="7.1749" style="paint-order:normal"/>
     <rect id="rect5539" x="349.91" y="166.4" width="17.675" height="7.1749" style="paint-order:normal"/>
     <rect id="rect5541" x="349.91" y="173.58" width="17.675" height="7.1749" style="paint-order:normal"/>
     <rect id="rect5543" x="367.59" y="173.58" width="17.675" height="7.1749" style="paint-order:normal"/>
     <rect id="rect5547" x="296.89" y="194.47" width="17.675" height="7.1749" style="paint-order:normal"/>
     <rect id="rect5549" x="296.89" y="201.64" width="17.675" height="7.1749" style="paint-order:normal"/>
     <rect id="rect5551" x="314.56" y="194.47" width="17.675" height="7.1749" style="paint-order:normal"/>
     <rect id="rect5553" x="279.21" y="201.64" width="17.675" height="7.1749" style="paint-order:normal"/>
    </g>
    <rect id="rect5555" x="279.21" y="194.47" width="17.675" height="7.1749" stroke-width=".325" style="paint-order:normal"/>
    <g stroke-width=".32508">
     <rect id="rect5557" x="367.59" y="194.47" width="17.675" height="7.1749" style="paint-order:normal"/>
     <rect id="rect5559" x="314.56" y="201.64" width="17.675" height="7.1749" style="paint-order:normal"/>
     <rect id="rect5561" x="332.24" y="201.64" width="17.675" height="7.1749" style="paint-order:normal"/>
     <rect id="rect5563" x="332.24" y="194.47" width="17.675" height="7.1749" style="paint-order:normal"/>
     <rect id="rect5565" x="349.91" y="194.47" width="17.675" height="7.1749" style="paint-order:normal"/>
     <rect id="rect5567" x="349.91" y="201.64" width="17.675" height="7.1749" style="paint-order:normal"/>
     <rect id="rect5569" x="367.59" y="201.64" width="17.675" height="7.1749" style="paint-order:normal"/>
     <rect id="rect5573" x="296.89" y="222.53" width="17.675" height="7.1749" style="paint-order:normal"/>
     <rect id="rect5575" x="296.89" y="229.71" width="17.675" height="7.1749" style="paint-order:normal"/>
     <rect id="rect5577" x="314.56" y="222.53" width="17.675" height="7.1749" style="paint-order:normal"/>
     <rect id="rect5579" x="279.21" y="229.71" width="17.675" height="7.1749" style="paint-order:normal"/>
    </g>
    <rect id="rect5581" x="279.21" y="222.53" width="17.675" height="7.1749" stroke-width=".325" style="paint-order:normal"/>
    <g stroke-width=".32508">
     <rect id="rect5583" x="367.59" y="222.53" width="17.675" height="7.1749" style="paint-order:normal"/>
     <rect id="rect5585" x="314.56" y="229.71" width="17.675" height="7.1749" style="paint-order:normal"/>
     <rect id="rect5587" x="332.24" y="229.71" width="17.675" height="7.1749" style="paint-order:normal"/>
     <rect id="rect5589" x="332.24" y="222.53" width="17.675" height="7.1749" style="paint-order:normal"/>
     <rect id="rect5591" x="349.91" y="222.53" width="17.675" height="7.1749" style="paint-order:normal"/>
     <rect id="rect5593" x="349.91" y="229.71" width="17.675" height="7.1749" style="paint-order:normal"/>
     <rect id="rect5595" x="367.59" y="229.71" width="17.675" height="7.1749" style="paint-order:normal"/>
     <rect id="rect5599" x="296.89" y="250.59" width="17.675" height="7.1749" style="paint-order:normal"/>
     <rect id="rect5601" x="296.89" y="257.77" width="17.675" height="7.1749" style="paint-order:normal"/>
     <rect id="rect5603" x="314.56" y="250.59" width="17.675" height="7.1749" style="paint-order:normal"/>
     <rect id="rect5605" x="279.21" y="257.77" width="17.675" height="7.1749" style="paint-order:normal"/>
    </g>
    <rect id="rect5607" x="279.21" y="250.59" width="17.675" height="7.1749" stroke-width=".325" style="paint-order:normal"/>
    <g stroke-width=".32508">
     <rect id="rect5609" x="367.59" y="250.59" width="17.675" height="7.1749" style="paint-order:normal"/>
     <rect id="rect5611" x="314.56" y="257.77" width="17.675" height="7.1749" style="paint-order:normal"/>
     <rect id="rect5613" x="332.24" y="257.77" width="17.675" height="7.1749" style="paint-order:normal"/>
     <rect id="rect5615" x="332.24" y="250.59" width="17.675" height="7.1749" style="paint-order:normal"/>
     <rect id="rect5617" x="349.91" y="250.59" width="17.675" height="7.1749" style="paint-order:normal"/>
     <rect id="rect5619" x="349.91" y="257.77" width="17.675" height="7.1749" style="paint-order:normal"/>
     <rect id="rect5621" x="367.59" y="257.77" width="17.675" height="7.1749" style="paint-order:normal"/>
    </g>
   </g>
   <rect id="rect5840" x="127.22" y="75.487" width="3.7418" height="221.51" fill="#666" fill-opacity=".52486" stroke-width=".26458"/>
   <flowRoot id="flowRoot5842" transform="matrix(.42116 0 0 .42116 -15.941 116.74)" fill="#000000" font-family="'Serpentine LT Medium'" font-size="40px" letter-spacing="0px" word-spacing="0px" style="line-height:1.25" xml:space="preserve"><flowRegion id="flowRegion5844" font-family="'Serpentine LT Medium'"><rect id="rect5846" x="84.853" y="127.22" width="226.27" height="206.48"/></flowRegion><flowPara id="flowPara5852">Soveplass</flowPara></flowRoot>
   <text id="text5868" transform="rotate(-90)" x="-207.1288" y="127.76811" fill="#000000" font-family="sans-serif" font-size="10.583px" letter-spacing="0px" stroke-width=".26458" word-spacing="0px" style="line-height:1.25" xml:space="preserve"><tspan id="tspan5866" x="-207.1288" y="127.76811" stroke-width=".26458">skillevegg</tspan></text>
   <rect id="rect6051" y="76.84" width="441.53" height="222.41" fill-opacity="0" stroke="#000" stroke-linejoin="round" stroke-width="3" style="paint-order:normal"/>
   <rect id="rect6053" x="401.53" y="299.25" width="40" height="30" fill-opacity="0" stroke="#000" stroke-linejoin="round" stroke-width="3" style="paint-order:normal"/>
   <rect id="rect6055" x="403.49" y="282.71" width="36.248" height="28.046" fill="#fff" style="paint-order:normal"/>
   <g fill="#000000" letter-spacing="0px" word-spacing="0px">
    <g font-family="'Serpentine LT Medium'">
     <text id="text6041" x="352.75684" y="333.66934" font-size="16.829px" stroke-width=".42072" style="line-height:1.25" xml:space="preserve"><tspan id="tspan6039" x="352.75684" y="333.66934" stroke-width=".42072">--&gt; </tspan></text>
     <text id="text6025" transform="scale(.90427 1.1059)" x="316.00906" y="287.31076" font-size="14.534px" stroke-width=".36335" style="line-height:1.25" xml:space="preserve"><tspan id="tspan6023" x="316.00906" y="287.31076" stroke-width=".36335">Hovedinngang</tspan></text>
     <text id="text1006" transform="scale(.66982 1.4929)" x="345.07916" y="42.147583" font-size="20.57px" stroke-width=".51425" style="line-height:1.25" xml:space="preserve"><tspan id="tspan1004" x="345.07916" y="42.147583" font-family="'Serpentine LT Medium'" stroke-width=".51425">Deltakerplass 90x75cm</tspan></text>
    </g>
    <g font-family="sans-serif" font-size="10.583px" stroke-width=".26458">
     <text id="text6449" x="314.30899" y="330.67596" style="line-height:1.25" xml:space="preserve"><tspan id="tspan6447" x="314.30899" y="330.67596" stroke-width=".26458">kiosk</tspan></text>
     <text id="text7127" x="31.97217" y="318.50388" style="line-height:1.25" xml:space="preserve"><tspan id="tspan7125" x="31.97217" y="318.50388" stroke-width=".26458">= Deltakerplass</tspan></text>
     <text id="text7131" x="150.21219" y="318.50388" style="line-height:1.25" xml:space="preserve"><tspan id="tspan7129" x="150.21219" y="318.50388" stroke-width=".26458">= Crewplass</tspan></text>
    </g>
   </g>
  </g>
 </g>
</svg>
